<svg id="Layer_1" data-name="Layer 1" xmlns="http://www.w3.org/2000/svg" viewBox="0 0 97.7 122.88"><title>plan</title><path d="M37.75,5.14v5.09a2.57,2.57,0,0,1-2.32,2.55,2.94,2.94,0,0,1-.91.13H25.07V23.46H72.63V12.91H63.17a3,3,0,0,1-.91-.13,2.57,2.57,0,0,1-2.32-2.55V5.14ZM70.3,50.44a10.26,10.26,0,0,1,7.26,3h0a10.27,10.27,0,1,1-14.53,0l.13-.12a10.23,10.23,0,0,1,7.13-2.89Zm4.22,6.05a6,6,0,0,0-8.34-.09l-.09.1a6,6,0,1,0,8.43,0ZM47.17,90.72l4.62-2.63-2.63-4.62L53.49,81l2.62,4.62L60.73,83l2.46,4.33L58.57,90l2.63,4.62L56.87,97l-2.62-4.61L49.63,95l-2.46-4.32ZM15.82,56.39l4.62-2.62-2.63-4.62,4.33-2.46,2.62,4.62,4.62-2.62L31.84,53l-4.62,2.62,2.63,4.62-4.33,2.46L22.9,58.09l-4.62,2.63-2.46-4.33ZM32,84.26a7.08,7.08,0,1,1-5.66,1.06l.21-.14a24.58,24.58,0,0,1-.13-4.45,21.89,21.89,0,0,1,5.17-13.07,21.68,21.68,0,0,1,13.72-7.14c.64-.1,1.31-.17,2-.22l-3.39-2.83,3.54-4.23,11,9.15L48.54,72.58l-4-3.82,2.84-2.93q-.69,0-1.35.15A15.58,15.58,0,0,0,31.91,81.06a19.06,19.06,0,0,0,.07,3.2Zm.45,5.41a2.59,2.59,0,0,0-1.65-1.06,2.54,2.54,0,0,0-1.91.41,2.59,2.59,0,0,0-1.06,1.64,2.52,2.52,0,0,0,.41,1.91,2.56,2.56,0,0,0,4.62-1,2.6,2.6,0,0,0-.41-1.92Zm-8.64-61a4,4,0,0,1-2.73-1.13c-.09-.1-.13-.19-.22-.28a3.93,3.93,0,0,1-.91-2.45V19.64H5.68a.51.51,0,0,0-.41.19.67.67,0,0,0-.18.4v96.92a.46.46,0,0,0,.18.41.6.6,0,0,0,.41.18H92a.56.56,0,0,0,.41-.18.44.44,0,0,0,.19-.41V20.23a.68.68,0,0,0-.19-.4.49.49,0,0,0-.41-.19H77.77v5.19a3.93,3.93,0,0,1-.91,2.45c-.09.09-.14.18-.23.28a3.92,3.92,0,0,1-2.72,1.13ZM5.73,122.88A5.74,5.74,0,0,1,0,117.15V20.23A5.75,5.75,0,0,1,5.73,14.5H20V11.69a3.89,3.89,0,0,1,3.87-3.87h8.82V4.27a4.25,4.25,0,0,1,1.27-3,4.25,4.25,0,0,1,3-1.27H60.76a4.22,4.22,0,0,1,3,1.27,4.22,4.22,0,0,1,1.28,3V7.82h8.82a3.88,3.88,0,0,1,3.86,3.87V14.5H92a5.77,5.77,0,0,1,5.73,5.73v96.92A5.74,5.74,0,0,1,92,122.88Z"/></svg>